<svg width="1245" height="986" viewBox="0 0 1245 986" fill="none" xmlns="http://www.w3.org/2000/svg">
<g style="mix-blend-mode:plus-lighter" filter="url(#filter0_f_3003_72)">
<ellipse cx="622.608" cy="497.171" rx="336.608" ry="202.861" fill="url(#paint0_radial_3003_72)" fill-opacity="0.4"/>
</g>
<g clip-path="url(#clip0_3003_72)">
<g style="mix-blend-mode:plus-lighter" opacity="0.5" filter="url(#filter1_f_3003_72)">
<path d="M576.495 -92.7937H644.869L740.318 545.003H481.052L576.495 -92.7937Z" fill="url(#paint1_linear_3003_72)"/>
</g>
<g style="mix-blend-mode:plus-lighter" filter="url(#filter2_f_3003_72)">
<path d="M576.494 -92.7937H644.868L644.878 545.003H576.502L576.494 -92.7937Z" fill="url(#paint2_linear_3003_72)"/>
</g>
<g style="mix-blend-mode:plus-lighter" filter="url(#filter3_f_3003_72)">
<path d="M576.49 -92.7937H644.863L835.764 545.003H385.607L576.49 -92.7937Z" fill="url(#paint3_linear_3003_72)"/>
</g>
<g style="mix-blend-mode:plus-lighter" filter="url(#filter4_f_3003_72)">
<path d="M715.07 -0.752444L706.604 421.828" stroke="url(#paint4_linear_3003_72)" stroke-width="1.4272"/>
</g>
<g style="mix-blend-mode:plus-lighter" opacity="0.3" filter="url(#filter5_f_3003_72)">
<path d="M500.301 -80L500.301 265.962" stroke="url(#paint5_linear_3003_72)" stroke-width="1.4272"/>
</g>
<mask id="mask0_3003_72" style="mask-type:alpha" maskUnits="userSpaceOnUse" x="478" y="-61" width="266" height="592">
<rect x="478.256" y="-60.7937" width="264.86" height="591.205" fill="url(#paint6_linear_3003_72)"/>
</mask>
<g mask="url(#mask0_3003_72)">
<g style="mix-blend-mode:plus-lighter" opacity="0.87" filter="url(#filter6_i_3003_72)">
<path d="M667.85 -82.0735C371.255 166.022 843.195 313.387 637.534 491.315" stroke="white" stroke-opacity="0.01" stroke-width="10"/>
</g>
<g style="mix-blend-mode:plus-lighter" opacity="0.2" filter="url(#filter7_i_3003_72)">
<path d="M553.521 -82.0735C850.116 166.022 444.86 297.748 650.521 475.675" stroke="url(#paint7_linear_3003_72)" stroke-width="10"/>
</g>
<g style="mix-blend-mode:plus-lighter" opacity="0.67" filter="url(#filter8_f_3003_72)">
<path d="M553.523 -82.0735C850.118 166.022 378.178 313.387 583.839 491.315" stroke="white"/>
</g>
<g style="mix-blend-mode:plus-lighter" opacity="0.6" filter="url(#filter9_f_3003_72)">
<path d="M667.85 -82.0735C371.255 166.022 776.512 297.748 570.85 475.675" stroke="white"/>
</g>
<g style="mix-blend-mode:plus-lighter" opacity="0.46" filter="url(#filter10_f_3003_72)">
<path d="M553.523 -82.0735C850.119 166.022 504.554 290.286 710.216 468.214" stroke="white"/>
</g>
<g style="mix-blend-mode:plus-lighter" opacity="0.58" filter="url(#filter11_f_3003_72)">
<path d="M667.85 -82.0735C371.254 166.022 716.819 290.286 511.157 468.214" stroke="white"/>
</g>
<g style="mix-blend-mode:plus-lighter" opacity="0.72" filter="url(#filter12_f_3003_72)">
<path d="M609.82 -16.7258C644.142 211.039 641.53 363.404 609.819 449.017" stroke="white"/>
</g>
<g style="mix-blend-mode:plus-lighter" opacity="0.93" filter="url(#filter13_f_3003_72)">
<path d="M610.943 -2.5368C576.622 225.228 579.233 377.593 610.944 463.206" stroke="white"/>
</g>
</g>
<mask id="mask1_3003_72" style="mask-type:alpha" maskUnits="userSpaceOnUse" x="461" y="-48" width="299" height="546">
<rect opacity="0.75" x="461.92" y="-47.2427" width="297.374" height="544.413" fill="url(#paint8_linear_3003_72)"/>
</mask>
<g mask="url(#mask1_3003_72)">
<g style="mix-blend-mode:overlay" clip-path="url(#clip1_3003_72)">
<circle opacity="0.46" cx="500.552" cy="6.07921" r="1.14191" transform="rotate(-42 500.552 6.07921)" fill="white"/>
<circle opacity="0.42" cx="503.311" cy="0.0462965" r="1.14191" transform="rotate(101 503.311 0.0462965)" fill="white"/>
<circle opacity="0.53" cx="693.327" cy="2.3565" r="1.14191" transform="rotate(-168 693.327 2.3565)" fill="white"/>
<circle opacity="0.56" cx="709.829" cy="2.13736" r="1.14191" transform="rotate(-148 709.829 2.13736)" fill="white"/>
<circle opacity="0.8" cx="726.561" cy="9.19348" r="1.25611" transform="rotate(-14 726.561 9.19348)" fill="white"/>
<circle opacity="0.53" cx="487.234" cy="14.064" r="1.14191" transform="rotate(13 487.234 14.064)" fill="white"/>
<circle opacity="0.74" cx="494.97" cy="20.0891" r="1.30178" transform="rotate(-116 494.97 20.0891)" fill="white"/>
<circle opacity="0.76" cx="507.657" cy="14.5604" r="1.14191" transform="rotate(150 507.657 14.5604)" fill="white"/>
<circle opacity="0.87" cx="516.401" cy="18.8892" r="1.14191" transform="rotate(-69 516.401 18.8892)" fill="white"/>
<circle opacity="0.1" cx="524.138" cy="13.9189" r="1.14191" transform="rotate(-86 524.138 13.9189)" fill="white"/>
<circle opacity="0.81" cx="527.361" cy="11.4395" r="1.14191" transform="rotate(-96 527.361 11.4395)" fill="white"/>
<circle opacity="0.8" cx="542.75" cy="16.8442" r="1.14191" transform="rotate(-60 542.75 16.8442)" fill="white"/>
<circle opacity="0.84" cx="547.713" cy="16.1543" r="1.30178" transform="rotate(172 547.713 16.1543)" fill="white"/>
<circle opacity="0.64" cx="549.413" cy="13.398" r="1.29036" transform="rotate(-165 549.413 13.398)" fill="white"/>
<circle opacity="0.49" cx="556.729" cy="12.9749" r="1.14191" transform="rotate(125 556.729 12.9749)" fill="white"/>
<circle opacity="0.41" cx="569.157" cy="13.1886" r="1.26753" transform="rotate(119 569.157 13.1886)" fill="white"/>
<circle opacity="0.66" cx="581.956" cy="18.9024" r="1.29036" transform="rotate(19 581.956 18.9024)" fill="white"/>
<circle opacity="0.83" cx="585.963" cy="18.601" r="1.14191" transform="rotate(79 585.963 18.601)" fill="white"/>
<circle opacity="0.83" cx="551.562" cy="22.9229" r="1.14191" transform="rotate(-85 551.562 22.9229)" fill="white"/>
<circle opacity="0.6" cx="561.488" cy="25.4373" r="1.14191" transform="rotate(165 561.488 25.4373)" fill="white"/>
<circle opacity="0.64" cx="567.716" cy="36.7344" r="1.14191" transform="rotate(78 567.716 36.7344)" fill="white"/>
<circle opacity="0.77" cx="577.085" cy="28.4035" r="1.26753" transform="rotate(139 577.085 28.4035)" fill="white"/>
<circle opacity="0.11" cx="582.807" cy="35.035" r="1.27894" transform="rotate(146 582.807 35.035)" fill="white"/>
<circle opacity="0.66" cx="596.752" cy="24.6778" r="1.14191" transform="rotate(-149 596.752 24.6778)" fill="white"/>
<circle opacity="0.62" cx="599.891" cy="23.7921" r="1.14191" transform="rotate(-51 599.891 23.7921)" fill="white"/>
<circle opacity="0.84" cx="612.12" cy="32.1538" r="1.18759" transform="rotate(82 612.12 32.1538)" fill="white"/>
<circle opacity="0.41" cx="612.663" cy="26.3855" r="1.14191" transform="rotate(130 612.663 26.3855)" fill="white"/>
<circle opacity="0.63" cx="622.377" cy="22.35" r="1.14191" transform="rotate(-131 622.377 22.35)" fill="white"/>
<circle opacity="0.16" cx="635.509" cy="29.3488" r="1.14191" transform="rotate(-110 635.509 29.3488)" fill="white"/>
<circle opacity="0.59" cx="655.82" cy="47.3528" r="1.22185" transform="rotate(-159 655.82 47.3528)" fill="white"/>
<circle opacity="0.2" cx="666.436" cy="37.4451" r="1.35888" transform="rotate(-47 666.436 37.4451)" fill="white"/>
<circle opacity="0.67" cx="675.293" cy="45.8996" r="1.14191" transform="rotate(27 675.293 45.8996)" fill="white"/>
<circle opacity="0.57" cx="678.856" cy="41.4545" r="1.25611" transform="rotate(24 678.856 41.4545)" fill="white"/>
<circle opacity="0.88" cx="691.359" cy="42.8561" r="1.14191" transform="rotate(-114 691.359 42.8561)" fill="white"/>
<circle opacity="0.53" cx="694.649" cy="46.2225" r="1.33604" transform="rotate(148 694.649 46.2225)" fill="white"/>
<circle opacity="0.84" cx="702.644" cy="45.0952" r="1.14191" transform="rotate(-119 702.644 45.0952)" fill="white"/>
<circle opacity="0.21" cx="713.953" cy="41.1946" r="1.14191" transform="rotate(75 713.953 41.1946)" fill="white"/>
<circle opacity="0.51" cx="721.743" cy="43.3695" r="1.14191" transform="rotate(-83 721.743 43.3695)" fill="white"/>
<circle opacity="0.12" cx="485.947" cy="59.5206" r="1.17617" transform="rotate(60 485.947 59.5206)" fill="white"/>
<circle opacity="0.19" cx="495.071" cy="55.9382" r="1.14191" transform="rotate(124 495.071 55.9382)" fill="white"/>
<circle opacity="0.26" cx="507.894" cy="63.4078" r="1.14191" transform="rotate(100 507.894 63.4078)" fill="white"/>
<circle opacity="0.73" cx="510.835" cy="55.3761" r="1.29036" transform="rotate(143 510.835 55.3761)" fill="white"/>
<circle opacity="0.38" cx="519.88" cy="59.6105" r="1.3132" transform="rotate(69 519.88 59.6105)" fill="white"/>
<circle opacity="0.19" cx="529.693" cy="52.2868" r="1.14191" transform="rotate(176 529.693 52.2868)" fill="white"/>
<circle opacity="0.77" cx="535.07" cy="50.6173" r="1.14191" transform="rotate(151 535.07 50.6173)" fill="white"/>
<circle opacity="0.22" cx="490.187" cy="63.1879" r="1.14191" transform="rotate(-163 490.187 63.1879)" fill="white"/>
<circle opacity="0.61" cx="497.02" cy="69.8917" r="1.14191" transform="rotate(-122 497.02 69.8917)" fill="white"/>
<circle opacity="0.59" cx="501.242" cy="65.7359" r="1.14191" transform="rotate(-179 501.242 65.7359)" fill="white"/>
<circle opacity="0.41" cx="516.126" cy="74.9522" r="1.14191" transform="rotate(-87 516.126 74.9522)" fill="white"/>
<circle opacity="0.27" cx="522.226" cy="71.7456" r="1.14191" transform="rotate(-35 522.226 71.7456)" fill="white"/>
<circle opacity="0.53" cx="529.303" cy="64.7545" r="1.14191" transform="rotate(130 529.303 64.7545)" fill="white"/>
<circle opacity="0.45" cx="539.576" cy="64.6701" r="1.14191" transform="rotate(133 539.576 64.6701)" fill="white"/>
<circle opacity="0.35" cx="541.335" cy="70.5532" r="1.19901" transform="rotate(81 541.335 70.5532)" fill="white"/>
<circle opacity="0.84" cx="551.801" cy="70.0667" r="1.14191" transform="rotate(-165 551.801 70.0667)" fill="white"/>
<circle opacity="0.47" cx="563.643" cy="67.4233" r="1.14191" transform="rotate(116 563.643 67.4233)" fill="white"/>
<circle opacity="0.31" cx="568.07" cy="70.7083" r="1.14191" transform="rotate(64 568.07 70.7083)" fill="white"/>
<circle opacity="0.57" cx="579.956" cy="77.1134" r="1.14191" transform="rotate(93 579.956 77.1134)" fill="white"/>
<circle opacity="0.34" cx="588.305" cy="68.4482" r="1.14191" transform="rotate(-72 588.305 68.4482)" fill="white"/>
<circle opacity="0.44" cx="595.593" cy="72.9041" r="1.14191" transform="rotate(18 595.593 72.9041)" fill="white"/>
<circle opacity="0.26" cx="598.06" cy="67.5822" r="1.14191" transform="rotate(-143 598.06 67.5822)" fill="white"/>
<circle opacity="0.45" cx="608.228" cy="74.4532" r="1.14191" transform="rotate(-147 608.228 74.4532)" fill="white"/>
<circle opacity="0.16" cx="620.927" cy="73.0681" r="1.14191" transform="rotate(52 620.927 73.0681)" fill="white"/>
<circle opacity="0.14" cx="628.225" cy="74.7794" r="1.32462" transform="rotate(-87 628.225 74.7794)" fill="white"/>
<circle opacity="0.11" cx="634.195" cy="77.5194" r="1.14191" transform="rotate(68 634.195 77.5194)" fill="white"/>
<circle opacity="0.86" cx="643.816" cy="63.3412" r="1.14191" transform="rotate(-97 643.816 63.3412)" fill="white"/>
<circle opacity="0.59" cx="646.978" cy="69.6854" r="1.15333" transform="rotate(117 646.978 69.6854)" fill="white"/>
<circle opacity="0.74" cx="657.607" cy="72.5458" r="1.14191" transform="rotate(93 657.607 72.5458)" fill="white"/>
<circle opacity="0.4" cx="665.02" cy="72.1978" r="1.15333" transform="rotate(-117 665.02 72.1978)" fill="white"/>
<circle opacity="0.68" cx="673.987" cy="65.499" r="1.14191" transform="rotate(-165 673.987 65.499)" fill="white"/>
<circle opacity="0.38" cx="684.355" cy="76.9019" r="1.26753" transform="rotate(-16 684.355 76.9019)" fill="white"/>
<circle opacity="0.54" cx="689.329" cy="76.7408" r="1.14191" transform="rotate(109 689.329 76.7408)" fill="white"/>
<circle opacity="0.53" cx="695.004" cy="72.0962" r="1.14191" transform="rotate(112 695.004 72.0962)" fill="white"/>
<circle opacity="0.69" cx="704.316" cy="65.2915" r="1.14191" transform="rotate(-141 704.316 65.2915)" fill="white"/>
<circle opacity="0.22" cx="711.962" cy="66.7428" r="1.25611" transform="rotate(-50 711.962 66.7428)" fill="white"/>
<circle opacity="0.4" cx="721.652" cy="63.5124" r="1.14191" transform="rotate(-88 721.652 63.5124)" fill="white"/>
<circle opacity="0.17" cx="490.246" cy="87.6075" r="1.14191" transform="rotate(-34 490.246 87.6075)" fill="white"/>
<circle opacity="0.76" cx="494.738" cy="78.5613" r="1.35888" transform="rotate(-124 494.738 78.5613)" fill="white"/>
<circle opacity="0.72" cx="506.244" cy="77.9113" r="1.14191" transform="rotate(-54 506.244 77.9113)" fill="white"/>
<circle opacity="0.17" cx="509.569" cy="80.9613" r="1.3703" transform="rotate(-159 509.569 80.9613)" fill="white"/>
<circle opacity="0.27" cx="522.975" cy="87.9692" r="1.14191" transform="rotate(-133 522.975 87.9692)" fill="white"/>
<circle opacity="0.62" cx="527.686" cy="90.5939" r="1.18759" transform="rotate(-8 527.686 90.5939)" fill="white"/>
<circle opacity="0.63" cx="536.097" cy="89.6753" r="1.24469" transform="rotate(-42 536.097 89.6753)" fill="white"/>
<circle opacity="0.33" cx="545.883" cy="79.3459" r="1.18759" transform="rotate(-86 545.883 79.3459)" fill="white"/>
<circle opacity="0.65" cx="678.928" cy="91.0346" r="1.14191" transform="rotate(19 678.928 91.0346)" fill="white"/>
<circle opacity="0.83" cx="694.68" cy="85.0437" r="1.14191" transform="rotate(-44 694.68 85.0437)" fill="white"/>
<circle opacity="0.44" cx="695.938" cy="83.498" r="1.14191" transform="rotate(-155 695.938 83.498)" fill="white"/>
<circle opacity="0.81" cx="709.908" cy="88.2136" r="1.14191" transform="rotate(-103 709.908 88.2136)" fill="white"/>
<circle opacity="0.68" cx="711.531" cy="81.3508" r="1.14191" transform="rotate(-11 711.531 81.3508)" fill="white"/>
<circle opacity="0.62" cx="649.055" cy="95.5261" r="1.14191" transform="rotate(26 649.055 95.5261)" fill="white"/>
<circle opacity="0.3" cx="656.494" cy="100.181" r="1.14191" transform="rotate(46 656.494 100.181)" fill="white"/>
<circle opacity="0.42" cx="668.203" cy="92.6972" r="1.21043" transform="rotate(-10 668.203 92.6972)" fill="white"/>
<circle opacity="0.63" cx="673.71" cy="95.2024" r="1.14191" transform="rotate(-87 673.71 95.2024)" fill="white"/>
<circle opacity="0.7" cx="677.203" cy="92.7441" r="1.14191" transform="rotate(-174 677.203 92.7441)" fill="white"/>
<circle opacity="0.51" cx="692.621" cy="103.628" r="1.34746" transform="rotate(-30 692.621 103.628)" fill="white"/>
<circle opacity="0.76" cx="696.962" cy="94.7386" r="1.14191" transform="rotate(-118 696.962 94.7386)" fill="white"/>
<circle opacity="0.75" cx="707.216" cy="98.0849" r="1.3132" transform="rotate(31 707.216 98.0849)" fill="white"/>
<circle opacity="0.44" cx="630.862" cy="104.334" r="1.35888" transform="rotate(164 630.862 104.334)" fill="white"/>
<circle opacity="0.7" cx="643.266" cy="109.102" r="1.14191" transform="rotate(29 643.266 109.102)" fill="white"/>
<circle opacity="0.51" cx="651.497" cy="108.37" r="1.14191" transform="rotate(-110 651.497 108.37)" fill="white"/>
<circle opacity="0.24" cx="652.628" cy="105.153" r="1.14191" transform="rotate(139 652.628 105.153)" fill="white"/>
<circle opacity="0.65" cx="663.847" cy="105.322" r="1.14191" transform="rotate(-43 663.847 105.322)" fill="white"/>
<circle opacity="0.43" cx="670.901" cy="109.692" r="1.14191" transform="rotate(140 670.901 109.692)" fill="white"/>
<circle opacity="0.39" cx="680.308" cy="114.822" r="1.32462" transform="rotate(-141 680.308 114.822)" fill="white"/>
<circle opacity="0.61" cx="687.773" cy="109.415" r="1.14191" transform="rotate(-60 687.773 109.415)" fill="white"/>
<circle opacity="0.52" cx="694.867" cy="117.407" r="1.25611" transform="rotate(111 694.867 117.407)" fill="white"/>
<circle opacity="0.32" cx="710.174" cy="106.427" r="1.14191" transform="rotate(1 710.174 106.427)" fill="white"/>
<circle opacity="0.28" cx="709.361" cy="118.069" r="1.14191" transform="rotate(76 709.361 118.069)" fill="white"/>
<circle opacity="0.51" cx="726.437" cy="106.073" r="1.14191" transform="rotate(-15 726.437 106.073)" fill="white"/>
<circle opacity="0.19" cx="491.653" cy="122.552" r="1.14191" transform="rotate(19 491.653 122.552)" fill="white"/>
<circle opacity="0.63" cx="654.911" cy="125.556" r="1.14191" transform="rotate(139 654.911 125.556)" fill="white"/>
<circle opacity="0.69" cx="660.619" cy="118.789" r="1.14191" transform="rotate(136 660.619 118.789)" fill="white"/>
<circle opacity="0.28" cx="673.204" cy="129.956" r="1.14191" transform="rotate(145 673.204 129.956)" fill="white"/>
<circle opacity="0.36" cx="678.944" cy="121.519" r="1.14191" transform="rotate(120 678.944 121.519)" fill="white"/>
<circle opacity="0.58" cx="688.384" cy="119.49" r="1.14191" transform="rotate(-139 688.384 119.49)" fill="white"/>
<circle opacity="0.2" cx="695.809" cy="120.904" r="1.14191" transform="rotate(-52 695.809 120.904)" fill="white"/>
<circle opacity="0.28" cx="702.998" cy="124.387" r="1.26753" transform="rotate(101 702.998 124.387)" fill="white"/>
<circle opacity="0.34" cx="714.901" cy="129.561" r="1.14191" transform="rotate(40 714.901 129.561)" fill="white"/>
<circle opacity="0.18" cx="722.979" cy="117.218" r="1.14191" transform="rotate(-127 722.979 117.218)" fill="white"/>
<circle opacity="0.75" cx="491.628" cy="138.398" r="1.14191" transform="rotate(20 491.628 138.398)" fill="white"/>
<circle opacity="0.16" cx="498.183" cy="137.46" r="1.14191" transform="rotate(-26 498.183 137.46)" fill="white"/>
<circle opacity="0.89" cx="640.789" cy="137.623" r="1.14191" transform="rotate(-126 640.789 137.623)" fill="white"/>
<circle opacity="0.24" cx="654.605" cy="144.365" r="1.14191" transform="rotate(-24 654.605 144.365)" fill="white"/>
<circle opacity="0.26" cx="655.845" cy="139.05" r="1.14191" transform="rotate(-51 655.845 139.05)" fill="white"/>
<circle opacity="0.37" cx="665.341" cy="138.234" r="1.24469" transform="rotate(169 665.341 138.234)" fill="white"/>
<circle opacity="0.7" cx="673.131" cy="141.531" r="1.17617" transform="rotate(134 673.131 141.531)" fill="white"/>
<circle opacity="0.46" cx="683.229" cy="130.596" r="1.29036" transform="rotate(-121 683.229 130.596)" fill="white"/>
<circle opacity="0.29" cx="694.015" cy="145.093" r="1.14191" transform="rotate(9 694.015 145.093)" fill="white"/>
<circle opacity="0.87" cx="699.404" cy="133.164" r="1.14191" transform="rotate(-112 699.404 133.164)" fill="white"/>
<circle opacity="0.45" cx="705.115" cy="135.448" r="1.14191" transform="rotate(-112 705.115 135.448)" fill="white"/>
<circle opacity="0.65" cx="715.151" cy="133.934" r="1.14191" transform="rotate(31 715.151 133.934)" fill="white"/>
<circle opacity="0.88" cx="726.032" cy="140.491" r="1.14191" transform="rotate(7 726.032 140.491)" fill="white"/>
<circle opacity="0.67" cx="486.434" cy="151.156" r="1.14191" transform="rotate(-133 486.434 151.156)" fill="white"/>
<circle opacity="0.78" cx="499.842" cy="144.58" r="1.14191" transform="rotate(-101 499.842 144.58)" fill="white"/>
<circle opacity="0.16" cx="501.012" cy="154.142" r="1.15333" transform="rotate(169 501.012 154.142)" fill="white"/>
<circle opacity="0.73" cx="509.408" cy="151.463" r="1.14191" transform="rotate(-171 509.408 151.463)" fill="white"/>
<circle opacity="0.34" cx="524.288" cy="146.774" r="1.14191" transform="rotate(-13 524.288 146.774)" fill="white"/>
<circle opacity="0.49" cx="526.962" cy="144.391" r="1.16475" transform="rotate(-113 526.962 144.391)" fill="white"/>
<circle opacity="0.56" cx="537.929" cy="156.003" r="1.14191" transform="rotate(-9 537.929 156.003)" fill="white"/>
<circle opacity="0.64" cx="548.376" cy="155.71" r="1.14191" transform="rotate(-21 548.376 155.71)" fill="white"/>
<circle opacity="0.41" cx="565.583" cy="179.225" r="1.26753" transform="rotate(69 565.583 179.225)" fill="white"/>
<circle opacity="0.39" cx="575.866" cy="178.005" r="1.14191" transform="rotate(-30 575.866 178.005)" fill="white"/>
<circle opacity="0.23" cx="587.698" cy="174.397" r="1.21043" transform="rotate(167 587.698 174.397)" fill="white"/>
<circle opacity="0.76" cx="590.606" cy="175.806" r="1.27894" transform="rotate(-125 590.606 175.806)" fill="white"/>
<circle opacity="0.81" cx="601.794" cy="185.658" r="1.14191" transform="rotate(86 601.794 185.658)" fill="white"/>
<circle opacity="0.2" cx="611.611" cy="175.948" r="1.27894" transform="rotate(-110 611.611 175.948)" fill="white"/>
<circle opacity="0.34" cx="617.775" cy="176.363" r="1.14191" transform="rotate(-4 617.775 176.363)" fill="white"/>
<circle opacity="0.1" cx="543.874" cy="186.039" r="1.15333" transform="rotate(-64 543.874 186.039)" fill="white"/>
<circle opacity="0.76" cx="553.254" cy="197.225" r="1.27894" transform="rotate(160 553.254 197.225)" fill="white"/>
<circle opacity="0.69" cx="559.592" cy="187.564" r="1.14191" transform="rotate(-7 559.592 187.564)" fill="white"/>
<circle opacity="0.23" cx="567.396" cy="185.489" r="1.14191" transform="rotate(177 567.396 185.489)" fill="white"/>
<circle opacity="0.33" cx="577.141" cy="190.371" r="1.14191" transform="rotate(25 577.141 190.371)" fill="white"/>
<circle opacity="0.33" cx="584.973" cy="192.705" r="1.14191" transform="rotate(31 584.973 192.705)" fill="white"/>
<circle opacity="0.78" cx="595.552" cy="190.857" r="1.14191" transform="rotate(145 595.552 190.857)" fill="white"/>
<circle opacity="0.51" cx="598.773" cy="193.105" r="1.29036" transform="rotate(145 598.773 193.105)" fill="white"/>
<circle opacity="0.53" cx="605.86" cy="189.578" r="1.14191" transform="rotate(-150 605.86 189.578)" fill="white"/>
<circle opacity="0.8" cx="620.788" cy="184.99" r="1.14191" transform="rotate(-147 620.788 184.99)" fill="white"/>
<circle opacity="0.69" cx="625.795" cy="189.901" r="1.14191" transform="rotate(-175 625.795 189.901)" fill="white"/>
<circle opacity="0.75" cx="635.107" cy="195.012" r="1.14191" transform="rotate(35 635.107 195.012)" fill="white"/>
<circle opacity="0.38" cx="641.988" cy="191.846" r="1.14191" transform="rotate(-19 641.988 191.846)" fill="white"/>
<circle opacity="0.64" cx="644.656" cy="197.709" r="1.14191" transform="rotate(145 644.656 197.709)" fill="white"/>
<circle opacity="0.5" cx="653.298" cy="189.689" r="1.22185" transform="rotate(-168 653.298 189.689)" fill="white"/>
<circle opacity="0.57" cx="666.138" cy="194.144" r="1.19901" transform="rotate(-158 666.138 194.144)" fill="white"/>
<circle opacity="0.19" cx="558.531" cy="205.567" r="1.14191" transform="rotate(-12 558.531 205.567)" fill="white"/>
<circle opacity="0.55" cx="559.052" cy="212.978" r="1.14191" transform="rotate(18 559.052 212.978)" fill="white"/>
<circle opacity="0.12" cx="564.849" cy="208.573" r="1.14191" transform="rotate(160 564.849 208.573)" fill="white"/>
<circle opacity="0.86" cx="575.192" cy="206.099" r="1.16475" transform="rotate(167 575.192 206.099)" fill="white"/>
<circle opacity="0.28" cx="587.564" cy="204.996" r="1.14191" transform="rotate(124 587.564 204.996)" fill="white"/>
<circle opacity="0.1" cx="593.614" cy="198.883" r="1.14191" transform="rotate(-95 593.614 198.883)" fill="white"/>
<circle opacity="0.12" cx="602.29" cy="207.52" r="1.29036" transform="rotate(-153 602.29 207.52)" fill="white"/>
<circle opacity="0.12" cx="609.232" cy="202.376" r="1.14191" transform="rotate(136 609.232 202.376)" fill="white"/>
<circle opacity="0.11" cx="613.322" cy="201.098" r="1.14191" transform="rotate(-171 613.322 201.098)" fill="white"/>
<circle opacity="0.2" cx="630.133" cy="201.149" r="1.14191" transform="rotate(-96 630.133 201.149)" fill="white"/>
<circle opacity="0.33" cx="636.133" cy="201.455" r="1.14191" transform="rotate(-81 636.133 201.455)" fill="white"/>
<circle opacity="0.45" cx="641.957" cy="204.03" r="1.30178" transform="rotate(73 641.957 204.03)" fill="white"/>
<circle opacity="0.23" cx="529.387" cy="225.796" r="1.14191" transform="rotate(-107 529.387 225.796)" fill="white"/>
<circle opacity="0.84" cx="535.242" cy="239.98" r="1.14191" transform="rotate(11 535.242 239.98)" fill="white"/>
<circle opacity="0.18" cx="543.282" cy="230.968" r="1.23327" transform="rotate(12 543.282 230.968)" fill="white"/>
<circle opacity="0.25" cx="551.297" cy="225.999" r="1.26753" transform="rotate(178 551.297 225.999)" fill="white"/>
<circle opacity="0.21" cx="556.711" cy="227.362" r="1.14191" transform="rotate(130 556.711 227.362)" fill="white"/>
<circle opacity="0.48" cx="569.43" cy="230.736" r="1.26753" transform="rotate(171 569.43 230.736)" fill="white"/>
<circle opacity="0.18" cx="579.561" cy="231.537" r="1.14191" transform="rotate(144 579.561 231.537)" fill="white"/>
<circle opacity="0.27" cx="590.029" cy="235.003" r="1.14191" transform="rotate(-102 590.029 235.003)" fill="white"/>
<circle opacity="0.25" cx="592.004" cy="227.554" r="1.23327" transform="rotate(-34 592.004 227.554)" fill="white"/>
<circle opacity="0.68" cx="597.478" cy="228.107" r="1.14191" transform="rotate(-165 597.478 228.107)" fill="white"/>
<circle opacity="0.83" cx="716.305" cy="233.601" r="1.14191" transform="rotate(-62 716.305 233.601)" fill="white"/>
<circle opacity="0.26" cx="718.916" cy="237.487" r="1.35888" transform="rotate(99 718.916 237.487)" fill="white"/>
<circle opacity="0.19" cx="487.864" cy="244.71" r="1.14191" transform="rotate(-68 487.864 244.71)" fill="white"/>
<circle opacity="0.29" cx="492.687" cy="248.446" r="1.32462" transform="rotate(109 492.687 248.446)" fill="white"/>
<circle opacity="0.87" cx="508.396" cy="246.942" r="1.14191" transform="rotate(-70 508.396 246.942)" fill="white"/>
<circle opacity="0.63" cx="518.821" cy="242.944" r="1.14191" transform="rotate(-49 518.821 242.944)" fill="white"/>
<circle opacity="0.51" cx="519.95" cy="250.133" r="1.14191" transform="rotate(-37 519.95 250.133)" fill="white"/>
<circle opacity="0.34" cx="530.482" cy="240.644" r="1.3132" transform="rotate(-49 530.482 240.644)" fill="white"/>
<circle opacity="0.64" cx="534.831" cy="244.793" r="1.32462" transform="rotate(152 534.831 244.793)" fill="white"/>
<circle opacity="0.77" cx="543.055" cy="245.759" r="1.14191" transform="rotate(120 543.055 245.759)" fill="white"/>
<circle opacity="0.76" cx="551.709" cy="249.077" r="1.14191" transform="rotate(-76 551.709 249.077)" fill="white"/>
<circle opacity="0.4" cx="566.509" cy="241.676" r="1.14191" transform="rotate(-11 566.509 241.676)" fill="white"/>
<circle opacity="0.16" cx="567.061" cy="246.55" r="1.32462" transform="rotate(170 567.061 246.55)" fill="white"/>
<circle opacity="0.22" cx="573.225" cy="253.392" r="1.14191" transform="rotate(87 573.225 253.392)" fill="white"/>
<circle opacity="0.54" cx="583.131" cy="250.616" r="1.14191" transform="rotate(109 583.131 250.616)" fill="white"/>
<circle opacity="0.16" cx="592.351" cy="244.656" r="1.14191" transform="rotate(53 592.351 244.656)" fill="white"/>
<circle opacity="0.26" cx="600.173" cy="241.209" r="1.3703" transform="rotate(-32 600.173 241.209)" fill="white"/>
<circle opacity="0.47" cx="606.924" cy="246.105" r="1.27894" transform="rotate(110 606.924 246.105)" fill="white"/>
<circle opacity="0.13" cx="615.594" cy="253.119" r="1.14191" transform="rotate(-10 615.594 253.119)" fill="white"/>
<circle opacity="0.74" cx="623.694" cy="253.562" r="1.14191" transform="rotate(77 623.694 253.562)" fill="white"/>
<circle opacity="0.2" cx="633.282" cy="247.152" r="1.14191" transform="rotate(152 633.282 247.152)" fill="white"/>
<circle opacity="0.32" cx="641.207" cy="243.085" r="1.14191" transform="rotate(134 641.207 243.085)" fill="white"/>
<circle opacity="0.83" cx="648.92" cy="242.34" r="1.14191" transform="rotate(31 648.92 242.34)" fill="white"/>
<circle opacity="0.21" cx="650.342" cy="258.151" r="1.14191" transform="rotate(62 650.342 258.151)" fill="white"/>
<circle opacity="0.76" cx="662.584" cy="255.019" r="1.16475" transform="rotate(-20 662.584 255.019)" fill="white"/>
<circle opacity="0.54" cx="669.663" cy="260.399" r="1.14191" transform="rotate(24 669.663 260.399)" fill="white"/>
<circle opacity="0.17" cx="673.652" cy="262.317" r="1.14191" transform="rotate(-90 673.652 262.317)" fill="white"/>
<circle opacity="0.87" cx="678.304" cy="261.846" r="1.14191" transform="rotate(-132 678.304 261.846)" fill="white"/>
<circle opacity="0.79" cx="693.401" cy="257.311" r="1.14191" transform="rotate(-123 693.401 257.311)" fill="white"/>
<circle opacity="0.61" cx="695.924" cy="256.91" r="1.23327" transform="rotate(-35 695.924 256.91)" fill="white"/>
<circle opacity="0.78" cx="708.357" cy="261.455" r="1.14191" transform="rotate(-35 708.357 261.455)" fill="white"/>
<circle opacity="0.56" cx="711.296" cy="253.222" r="1.14191" transform="rotate(178 711.296 253.222)" fill="white"/>
<circle opacity="0.33" cx="720.611" cy="258.216" r="1.14191" transform="rotate(40 720.611 258.216)" fill="white"/>
<circle opacity="0.33" cx="614.57" cy="269.425" r="1.14191" transform="rotate(-72 614.57 269.425)" fill="white"/>
<circle opacity="0.89" cx="621.53" cy="280.923" r="1.18759" transform="rotate(31 621.53 280.923)" fill="white"/>
<circle opacity="0.26" cx="628.572" cy="267.599" r="1.24469" transform="rotate(-54 628.572 267.599)" fill="white"/>
<circle opacity="0.59" cx="633.78" cy="269.12" r="1.14191" transform="rotate(-85 633.78 269.12)" fill="white"/>
<circle opacity="0.54" cx="644.818" cy="269.497" r="1.16475" transform="rotate(55 644.818 269.497)" fill="white"/>
<circle opacity="0.68" cx="644.702" cy="277.482" r="1.14191" transform="rotate(118 644.702 277.482)" fill="white"/>
<circle opacity="0.46" cx="660.257" cy="275.667" r="1.22185" transform="rotate(-12 660.257 275.667)" fill="white"/>
<circle opacity="0.64" cx="663.603" cy="280.149" r="1.14191" transform="rotate(-13 663.603 280.149)" fill="white"/>
<circle opacity="0.47" cx="676.179" cy="269.37" r="1.23327" transform="rotate(76 676.179 269.37)" fill="white"/>
<circle opacity="0.38" cx="681.794" cy="277.982" r="1.14191" transform="rotate(-8 681.794 277.982)" fill="white"/>
<circle opacity="0.76" cx="689.973" cy="280.692" r="1.14191" transform="rotate(75 689.973 280.692)" fill="white"/>
<circle opacity="0.17" cx="697.2" cy="279.657" r="1.14191" transform="rotate(122 697.2 279.657)" fill="white"/>
<circle opacity="0.31" cx="585.819" cy="282.463" r="1.14191" transform="rotate(-5 585.819 282.463)" fill="white"/>
<circle opacity="0.11" cx="590.125" cy="290.93" r="1.35888" transform="rotate(-140 590.125 290.93)" fill="white"/>
<circle opacity="0.26" cx="598.975" cy="290.813" r="1.14191" transform="rotate(126 598.975 290.813)" fill="white"/>
<circle opacity="0.29" cx="605.673" cy="289.774" r="1.14191" transform="rotate(67 605.673 289.774)" fill="white"/>
<circle opacity="0.16" cx="618.314" cy="282.182" r="1.14191" transform="rotate(-154 618.314 282.182)" fill="white"/>
<circle opacity="0.2" cx="630.155" cy="289.323" r="1.14191" transform="rotate(-95 630.155 289.323)" fill="white"/>
<circle opacity="0.34" cx="626.296" cy="313.497" r="1.26753" transform="rotate(-32 626.296 313.497)" fill="white"/>
<circle opacity="0.75" cx="633.879" cy="318.706" r="1.19901" transform="rotate(-7 633.879 318.706)" fill="white"/>
<circle opacity="0.74" cx="646.602" cy="307.921" r="1.14191" transform="rotate(-67 646.602 307.921)" fill="white"/>
<circle opacity="0.36" cx="649.959" cy="316.747" r="1.14191" transform="rotate(77 649.959 316.747)" fill="white"/>
<circle opacity="0.82" cx="658.71" cy="311.223" r="1.32462" transform="rotate(-138 658.71 311.223)" fill="white"/>
<circle opacity="0.66" cx="663.885" cy="307.04" r="1.14191" transform="rotate(-158 663.885 307.04)" fill="white"/>
<circle opacity="0.38" cx="669.468" cy="309.384" r="1.14191" transform="rotate(-163 669.468 309.384)" fill="white"/>
<circle opacity="0.32" cx="681.584" cy="318.745" r="1.14191" transform="rotate(-93 681.584 318.745)" fill="white"/>
<circle opacity="0.25" cx="692.383" cy="316.198" r="1.14191" transform="rotate(-160 692.383 316.198)" fill="white"/>
<circle opacity="0.34" cx="693.212" cy="321.218" r="1.14191" transform="rotate(83 693.212 321.218)" fill="white"/>
<circle opacity="0.7" cx="708.222" cy="314.113" r="1.25611" transform="rotate(-10 708.222 314.113)" fill="white"/>
<circle opacity="0.84" cx="710.904" cy="315.015" r="1.14191" transform="rotate(148 710.904 315.015)" fill="white"/>
<circle opacity="0.29" cx="718.496" cy="316.076" r="1.14191" transform="rotate(-124 718.496 316.076)" fill="white"/>
<circle opacity="0.43" cx="490.777" cy="332.819" r="1.14191" transform="rotate(51 490.777 332.819)" fill="white"/>
<circle opacity="0.66" cx="502.913" cy="329.047" r="1.19901" transform="rotate(-41 502.913 329.047)" fill="white"/>
<circle opacity="0.8" cx="507.396" cy="325.024" r="1.3703" transform="rotate(115 507.396 325.024)" fill="white"/>
<circle opacity="0.17" cx="514.543" cy="331.696" r="1.30178" transform="rotate(-147 514.543 331.696)" fill="white"/>
<circle opacity="0.86" cx="526.629" cy="334.255" r="1.14191" transform="rotate(-17 526.629 334.255)" fill="white"/>
<circle opacity="0.59" cx="527.055" cy="328.566" r="1.14191" transform="rotate(148 527.055 328.566)" fill="white"/>
<circle opacity="0.1" cx="667.584" cy="386.828" r="1.14191" transform="rotate(16 667.584 386.828)" fill="white"/>
<circle opacity="0.57" cx="672.594" cy="389.313" r="1.14191" transform="rotate(42 672.594 389.313)" fill="white"/>
<circle opacity="0.87" cx="686.212" cy="384.274" r="1.14191" transform="rotate(-90 686.212 384.274)" fill="white"/>
<circle opacity="0.37" cx="690.78" cy="383.801" r="1.14191" transform="rotate(-135 690.78 383.801)" fill="white"/>
<circle opacity="0.69" cx="697.404" cy="386.272" r="1.14191" transform="rotate(103 697.404 386.272)" fill="white"/>
<circle opacity="0.4" cx="702.94" cy="375.808" r="1.14191" transform="rotate(152 702.94 375.808)" fill="white"/>
<circle opacity="0.13" cx="708.586" cy="379.055" r="1.18759" transform="rotate(118 708.586 379.055)" fill="white"/>
<circle opacity="0.18" cx="721.302" cy="377.18" r="1.14191" transform="rotate(-104 721.302 377.18)" fill="white"/>
</g>
</g>
</g>
<defs>
<filter id="filter0_f_3003_72" x="0.559875" y="8.86993" width="1244.1" height="976.602" filterUnits="userSpaceOnUse" color-interpolation-filters="sRGB">
<feFlood flood-opacity="0" result="BackgroundImageFix"/>
<feBlend mode="normal" in="SourceGraphic" in2="BackgroundImageFix" result="shape"/>
<feGaussianBlur stdDeviation="142.72" result="effect1_foregroundBlur_3003_72"/>
</filter>
<filter id="filter1_f_3003_72" x="431.052" y="-142.794" width="359.267" height="737.796" filterUnits="userSpaceOnUse" color-interpolation-filters="sRGB">
<feFlood flood-opacity="0" result="BackgroundImageFix"/>
<feBlend mode="normal" in="SourceGraphic" in2="BackgroundImageFix" result="shape"/>
<feGaussianBlur stdDeviation="25" result="effect1_foregroundBlur_3003_72"/>
</filter>
<filter id="filter2_f_3003_72" x="551.494" y="-117.794" width="118.385" height="687.796" filterUnits="userSpaceOnUse" color-interpolation-filters="sRGB">
<feFlood flood-opacity="0" result="BackgroundImageFix"/>
<feBlend mode="normal" in="SourceGraphic" in2="BackgroundImageFix" result="shape"/>
<feGaussianBlur stdDeviation="12.5" result="effect1_foregroundBlur_3003_72"/>
</filter>
<filter id="filter3_f_3003_72" x="310.607" y="-167.794" width="600.156" height="787.796" filterUnits="userSpaceOnUse" color-interpolation-filters="sRGB">
<feFlood flood-opacity="0" result="BackgroundImageFix"/>
<feBlend mode="normal" in="SourceGraphic" in2="BackgroundImageFix" result="shape"/>
<feGaussianBlur stdDeviation="37.5" result="effect1_foregroundBlur_3003_72"/>
</filter>
<filter id="filter4_f_3003_72" x="694.472" y="-12.1843" width="32.7288" height="445.444" filterUnits="userSpaceOnUse" color-interpolation-filters="sRGB">
<feFlood flood-opacity="0" result="BackgroundImageFix"/>
<feBlend mode="normal" in="SourceGraphic" in2="BackgroundImageFix" result="shape"/>
<feGaussianBlur stdDeviation="5.7088" result="effect1_foregroundBlur_3003_72"/>
</filter>
<filter id="filter5_f_3003_72" x="489.597" y="-89.9904" width="21.4085" height="365.943" filterUnits="userSpaceOnUse" color-interpolation-filters="sRGB">
<feFlood flood-opacity="0" result="BackgroundImageFix"/>
<feBlend mode="normal" in="SourceGraphic" in2="BackgroundImageFix" result="shape"/>
<feGaussianBlur stdDeviation="4.9952" result="effect1_foregroundBlur_3003_72"/>
</filter>
<filter id="filter6_i_3003_72" x="561.895" y="-85.9087" width="134.401" height="581.005" filterUnits="userSpaceOnUse" color-interpolation-filters="sRGB">
<feFlood flood-opacity="0" result="BackgroundImageFix"/>
<feBlend mode="normal" in="SourceGraphic" in2="BackgroundImageFix" result="shape"/>
<feColorMatrix in="SourceAlpha" type="matrix" values="0 0 0 0 0 0 0 0 0 0 0 0 0 0 0 0 0 0 127 0" result="hardAlpha"/>
<feOffset/>
<feGaussianBlur stdDeviation="4.72964"/>
<feComposite in2="hardAlpha" operator="arithmetic" k2="-1" k3="1"/>
<feColorMatrix type="matrix" values="0 0 0 0 1 0 0 0 0 1 0 0 0 0 1 0 0 0 1 0"/>
<feBlend mode="normal" in2="shape" result="effect1_innerShadow_3003_72"/>
</filter>
<filter id="filter7_i_3003_72" x="550.313" y="-85.9087" width="121.185" height="565.365" filterUnits="userSpaceOnUse" color-interpolation-filters="sRGB">
<feFlood flood-opacity="0" result="BackgroundImageFix"/>
<feBlend mode="normal" in="SourceGraphic" in2="BackgroundImageFix" result="shape"/>
<feColorMatrix in="SourceAlpha" type="matrix" values="0 0 0 0 0 0 0 0 0 0 0 0 0 0 0 0 0 0 127 0" result="hardAlpha"/>
<feOffset/>
<feGaussianBlur stdDeviation="4.72964"/>
<feComposite in2="hardAlpha" operator="arithmetic" k2="-1" k3="1"/>
<feColorMatrix type="matrix" values="0 0 0 0 1 0 0 0 0 1 0 0 0 0 1 0 0 0 1 0"/>
<feBlend mode="normal" in2="shape" result="effect1_innerShadow_3003_72"/>
</filter>
<filter id="filter8_f_3003_72" x="527.212" y="-84.8219" width="130.131" height="578.879" filterUnits="userSpaceOnUse" color-interpolation-filters="sRGB">
<feFlood flood-opacity="0" result="BackgroundImageFix"/>
<feBlend mode="normal" in="SourceGraphic" in2="BackgroundImageFix" result="shape"/>
<feGaussianBlur stdDeviation="1.18241" result="effect1_foregroundBlur_3003_72"/>
</filter>
<filter id="filter9_f_3003_72" x="544.913" y="-91.9164" width="132.717" height="577.429" filterUnits="userSpaceOnUse" color-interpolation-filters="sRGB">
<feFlood flood-opacity="0" result="BackgroundImageFix"/>
<feBlend mode="normal" in="SourceGraphic" in2="BackgroundImageFix" result="shape"/>
<feGaussianBlur stdDeviation="4.72964" result="effect1_foregroundBlur_3003_72"/>
</filter>
<filter id="filter10_f_3003_72" x="546.109" y="-89.5516" width="171.529" height="565.238" filterUnits="userSpaceOnUse" color-interpolation-filters="sRGB">
<feFlood flood-opacity="0" result="BackgroundImageFix"/>
<feBlend mode="normal" in="SourceGraphic" in2="BackgroundImageFix" result="shape"/>
<feGaussianBlur stdDeviation="3.54723" result="effect1_foregroundBlur_3003_72"/>
</filter>
<filter id="filter11_f_3003_72" x="503.736" y="-89.5516" width="171.529" height="565.238" filterUnits="userSpaceOnUse" color-interpolation-filters="sRGB">
<feFlood flood-opacity="0" result="BackgroundImageFix"/>
<feBlend mode="normal" in="SourceGraphic" in2="BackgroundImageFix" result="shape"/>
<feGaussianBlur stdDeviation="3.54723" result="effect1_foregroundBlur_3003_72"/>
</filter>
<filter id="filter12_f_3003_72" x="599.867" y="-26.2596" width="44.6842" height="484.91" filterUnits="userSpaceOnUse" color-interpolation-filters="sRGB">
<feFlood flood-opacity="0" result="BackgroundImageFix"/>
<feBlend mode="normal" in="SourceGraphic" in2="BackgroundImageFix" result="shape"/>
<feGaussianBlur stdDeviation="4.72964" result="effect1_foregroundBlur_3003_72"/>
</filter>
<filter id="filter13_f_3003_72" x="576.213" y="-12.0706" width="44.6842" height="484.91" filterUnits="userSpaceOnUse" color-interpolation-filters="sRGB">
<feFlood flood-opacity="0" result="BackgroundImageFix"/>
<feBlend mode="normal" in="SourceGraphic" in2="BackgroundImageFix" result="shape"/>
<feGaussianBlur stdDeviation="4.72964" result="effect1_foregroundBlur_3003_72"/>
</filter>
<radialGradient id="paint0_radial_3003_72" cx="0" cy="0" r="1" gradientUnits="userSpaceOnUse" gradientTransform="translate(622.608 476.649) rotate(90) scale(281.977 947.708)">
<stop stop-color="#5E29FF" stop-opacity="0.22"/>
<stop offset="1" stop-color="#5E29FF"/>
</radialGradient>
<linearGradient id="paint1_linear_3003_72" x1="603.356" y1="-92.7937" x2="603.356" y2="512.762" gradientUnits="userSpaceOnUse">
<stop stop-color="#6E14D5"/>
<stop offset="1" stop-color="#5E29FF" stop-opacity="0"/>
</linearGradient>
<linearGradient id="paint2_linear_3003_72" x1="603.355" y1="-92.7937" x2="603.355" y2="512.762" gradientUnits="userSpaceOnUse">
<stop stop-color="white"/>
<stop offset="0.72" stop-color="white" stop-opacity="0.45"/>
<stop offset="0.875" stop-color="#5E29FF" stop-opacity="0.22"/>
<stop offset="1" stop-color="#5E29FF" stop-opacity="0"/>
</linearGradient>
<linearGradient id="paint3_linear_3003_72" x1="603.35" y1="-92.7937" x2="603.35" y2="512.762" gradientUnits="userSpaceOnUse">
<stop stop-color="#5E29FF"/>
<stop offset="1" stop-color="#5E29FF" stop-opacity="0"/>
</linearGradient>
<linearGradient id="paint4_linear_3003_72" x1="722.548" y1="-62.7201" x2="722.548" y2="222.19" gradientUnits="userSpaceOnUse">
<stop stop-color="#A4EFFF"/>
<stop offset="1" stop-color="#A4EFFF" stop-opacity="0"/>
</linearGradient>
<linearGradient id="paint5_linear_3003_72" x1="497.757" y1="100.461" x2="497.757" y2="385.371" gradientUnits="userSpaceOnUse">
<stop stop-color="#A4EFFF"/>
<stop offset="1" stop-color="#A4EFFF" stop-opacity="0"/>
</linearGradient>
<linearGradient id="paint6_linear_3003_72" x1="610.686" y1="-60.7937" x2="610.686" y2="464.196" gradientUnits="userSpaceOnUse">
<stop stop-color="#D9D9D9"/>
<stop offset="1" stop-color="white" stop-opacity="0"/>
</linearGradient>
<linearGradient id="paint7_linear_3003_72" x1="604.441" y1="-91.5276" x2="604.441" y2="491.315" gradientUnits="userSpaceOnUse">
<stop stop-color="white" stop-opacity="0"/>
<stop offset="0.5" stop-color="white"/>
<stop offset="1" stop-color="white" stop-opacity="0"/>
</linearGradient>
<linearGradient id="paint8_linear_3003_72" x1="610.607" y1="-47.2427" x2="610.607" y2="407.326" gradientUnits="userSpaceOnUse">
<stop/>
<stop offset="1" stop-opacity="0"/>
</linearGradient>
<clipPath id="clip0_3003_72">
<rect width="632" height="722" fill="white" transform="translate(294.607)"/>
</clipPath>
<clipPath id="clip1_3003_72">
<rect width="239.802" height="406.522" fill="white" transform="translate(486.378 -16.6909)"/>
</clipPath>
</defs>
</svg>
